<?xml version="1.0" encoding="UTF-8"?>
<svg id="Layer_1" data-name="Layer 1" xmlns="http://www.w3.org/2000/svg" viewBox="0 0 1461.43 1225.88">
  <defs>
    <style>
      .cls-1 {
        stroke-width: .08px;
      }

      .cls-1, .cls-2 {
        fill: #c91b1b;
        stroke: #231f20;
      }

      .cls-1, .cls-2, .cls-3 {
        stroke-miterlimit: 10;
      }

      .cls-2 {
        stroke-width: .08px;
      }

      .cls-3 {
        fill: none;
        stroke: #be1e2d;
        stroke-width: 3.77px;
      }
    </style>
  </defs>
  <g>
    <path class="cls-2" d="m1419.83,1217.73l-13.66.7c-15.45,0-27.98-12.38-27.98-27.65h0c0-15.27,12.53-27.65,27.98-27.65l39.25-.7"/>
    <path class="cls-1" d="m1397.66,1218.39h-53.32l-7.8-18.03-9.29,18.03h-19.66l-6.9-32.8c-.07-.35-.14-.7-.22-1.05h0s-4.49-21.33-4.49-21.33h19.35l5.59,27.24,13.62-27.24h3.54l13.62,27.24,5.59-27.24h39.75c-6.81.51-12.93,3.48-17.48,8.02-5.01,5-8.12,11.92-8.12,19.55,0,14.78,11.61,26.84,26.23,27.61Z"/>
  </g>
  <rect class="cls-3" x="1281.84" y="1156.85" width="177.71" height="67.15"/>
</svg>