<?xml version="1.0" encoding="UTF-8"?>
<svg id="OBJECTS" xmlns="http://www.w3.org/2000/svg" xmlns:xlink="http://www.w3.org/1999/xlink" viewBox="0 0 500 500">
  <defs>
    <style>
      .cls-1 {
        fill: #fff;
      }

      .cls-2 {
        fill: #c87e0e;
      }

      .cls-3 {
        clip-path: url(#clippath-1);
      }

      .cls-4 {
        fill: #7a7777;
      }

      .cls-5 {
        clip-path: url(#clippath);
      }
    </style>
    <clipPath id="clippath">
      <path class="cls-1" d="m154.23,288.08l-.43-50.58c0-7.25-.48-16.77,4.27-20.99,4.75-4.21,10.43-4.44,18.93-4.44h57.34l-17.01,21.32h-29.24c-1.88,0-3.4.51-4.56,1.54-1.16,1.03-1.74,2.38-1.74,4.04v49.1h-27.57Z"/>
    </clipPath>
    <clipPath id="clippath-1">
      <path class="cls-4" d="m212.43,288.08v-52.48c0-7.25,2.11-12.99,6.32-17.2,4.21-4.21,10.09-6.32,17.64-6.32h39.49v21.32h-29.64c-1.67,0-3.01.51-4.04,1.54-1.03,1.03-1.54,2.38-1.54,4.04v49.1h-28.23Z"/>
    </clipPath>
  </defs>
  <g>
    <polygon class="cls-1" points="194.24 265.56 179.67 265.56 179.67 247.42 203.36 247.42 194.24 265.56"/>
    <g>
      <path class="cls-1" d="m154.23,288.08l-.43-50.58c0-7.25-.48-16.77,4.27-20.99,4.75-4.21,10.43-4.44,18.93-4.44h57.34l-17.01,21.32h-29.24c-1.88,0-3.4.51-4.56,1.54-1.16,1.03-1.74,2.38-1.74,4.04v49.1h-27.57Z"/>
      <g class="cls-5">
        <polygon class="cls-1" points="150 270.91 163.95 288.08 150 288.08 150 270.91"/>
        <polygon class="cls-1" points="150 269.87 164.8 288.08 163.95 288.08 150 270.91 150 269.87"/>
        <polygon class="cls-1" points="150 268.82 165.65 288.08 164.8 288.08 150 269.87 150 268.82"/>
        <polygon class="cls-1" points="150 267.77 166.5 288.08 165.65 288.08 150 268.82 150 267.77"/>
        <polygon class="cls-1" points="150 266.73 167.35 288.08 166.5 288.08 150 267.77 150 266.73"/>
        <polygon class="cls-1" points="150 265.68 168.2 288.08 167.35 288.08 150 266.73 150 265.68"/>
        <polygon class="cls-1" points="150 264.64 169.05 288.08 168.2 288.08 150 265.68 150 264.64"/>
        <polygon class="cls-1" points="150 263.59 169.9 288.08 169.05 288.08 150 264.64 150 263.59"/>
        <polygon class="cls-1" points="150 262.55 170.75 288.08 169.9 288.08 150 263.59 150 262.55"/>
        <polygon class="cls-1" points="150 261.5 171.6 288.08 170.75 288.08 150 262.55 150 261.5"/>
        <polygon class="cls-1" points="150 260.46 172.45 288.08 171.6 288.08 150 261.5 150 260.46"/>
        <polygon class="cls-1" points="150 259.41 173.3 288.08 172.45 288.08 150 260.46 150 259.41"/>
        <polygon class="cls-1" points="150 258.37 174.15 288.08 173.3 288.08 150 259.41 150 258.37"/>
        <polygon class="cls-1" points="150 257.32 174.99 288.08 174.15 288.08 150 258.37 150 257.32"/>
        <polygon class="cls-1" points="150 256.27 175.84 288.08 174.99 288.08 150 257.32 150 256.27"/>
        <polygon class="cls-1" points="150 255.23 176.69 288.08 175.84 288.08 150 256.27 150 255.23"/>
        <polygon class="cls-1" points="150 254.18 177.54 288.08 176.69 288.08 150 255.23 150 254.18"/>
        <polygon class="cls-1" points="150 253.14 178.39 288.08 177.54 288.08 150 254.18 150 253.14"/>
        <polygon class="cls-1" points="150 252.09 179.24 288.08 178.39 288.08 150 253.14 150 252.09"/>
        <polygon class="cls-1" points="150 251.05 180.09 288.08 179.24 288.08 150 252.09 150 251.05"/>
        <polygon class="cls-1" points="150 250 180.94 288.08 180.09 288.08 150 251.05 150 250"/>
        <polygon class="cls-1" points="150 248.96 181.79 288.08 180.94 288.08 150 250 150 248.96"/>
        <polygon class="cls-1" points="150 247.91 182.64 288.08 181.79 288.08 150 248.96 150 247.91"/>
        <polygon class="cls-1" points="150 246.87 183.49 288.08 182.64 288.08 150 247.91 150 246.87"/>
        <polygon class="cls-1" points="150 245.82 184.3 288.03 184.24 288.08 183.49 288.08 150 246.87 150 245.82"/>
        <polygon class="cls-1" points="150 244.78 184.86 287.68 184.3 288.03 150 245.82 150 244.78"/>
        <polygon class="cls-1" points="150 243.73 185.42 287.32 184.86 287.68 150 244.78 150 243.73"/>
        <polygon class="cls-1" points="150 242.68 185.98 286.96 185.42 287.32 150 243.73 150 242.68"/>
        <polygon class="cls-1" points="150 241.64 186.54 286.6 185.98 286.96 150 242.68 150 241.64"/>
        <polygon class="cls-1" points="150 240.59 187.1 286.25 186.54 286.6 150 241.64 150 240.59"/>
        <polygon class="cls-1" points="150 239.55 187.66 285.89 187.1 286.25 150 240.59 150 239.55"/>
        <polygon class="cls-1" points="150 238.5 188.22 285.53 187.66 285.89 150 239.55 150 238.5"/>
        <polygon class="cls-1" points="150 237.46 188.78 285.17 188.22 285.53 150 238.5 150 237.46"/>
        <polygon class="cls-1" points="150 236.41 189.33 284.82 188.78 285.17 150 237.46 150 236.41"/>
        <polygon class="cls-1" points="150 235.37 189.89 284.46 189.33 284.82 150 236.41 150 235.37"/>
        <polygon class="cls-1" points="150 234.32 190.45 284.1 189.89 284.46 150 235.37 150 234.32"/>
        <polygon class="cls-1" points="150 233.28 191.01 283.74 190.45 284.1 150 234.32 150 233.28"/>
        <polygon class="cls-1" points="150 232.23 191.57 283.38 191.01 283.74 150 233.28 150 232.23"/>
        <polygon class="cls-1" points="150 231.18 192.13 283.03 191.57 283.38 150 232.23 150 231.18"/>
        <polygon class="cls-1" points="150 230.14 192.69 282.67 192.13 283.03 150 231.18 150 230.14"/>
        <polygon class="cls-1" points="150 229.09 193.25 282.31 192.69 282.67 150 230.14 150 229.09"/>
        <polygon class="cls-1" points="150 228.05 193.8 281.95 193.25 282.31 150 229.09 150 228.05"/>
        <polygon class="cls-1" points="150 227 194.36 281.6 193.8 281.95 150 228.05 150 227"/>
        <polygon class="cls-1" points="150 225.96 194.92 281.24 194.36 281.6 150 227 150 225.96"/>
        <polygon class="cls-1" points="150 224.91 195.48 280.88 194.92 281.24 150 225.96 150 224.91"/>
        <polygon class="cls-1" points="150 223.87 196.04 280.52 195.48 280.88 150 224.91 150 223.87"/>
        <polygon class="cls-1" points="150 222.82 196.6 280.17 196.04 280.52 150 223.87 150 222.82"/>
        <polygon class="cls-1" points="150 221.78 197.16 279.81 196.6 280.17 150 222.82 150 221.78"/>
        <polygon class="cls-1" points="150 220.73 197.72 279.45 197.16 279.81 150 221.78 150 220.73"/>
        <polygon class="cls-1" points="150 220.22 150.29 220.04 198.28 279.09 197.72 279.45 150 220.73 150 220.22"/>
        <polygon class="cls-1" points="150.29 220.04 150.85 219.68 198.83 278.73 198.28 279.09 150.29 220.04"/>
        <polygon class="cls-1" points="150.85 219.68 151.4 219.32 199.39 278.38 198.83 278.73 150.85 219.68"/>
        <polygon class="cls-1" points="151.4 219.32 151.96 218.96 199.95 278.02 199.39 278.38 151.4 219.32"/>
        <polygon class="cls-1" points="151.96 218.96 152.52 218.61 200.51 277.66 199.95 278.02 151.96 218.96"/>
        <polygon class="cls-1" points="152.52 218.61 153.08 218.25 201.07 277.3 200.51 277.66 152.52 218.61"/>
        <polygon class="cls-1" points="153.08 218.25 153.64 217.89 201.63 276.95 201.07 277.3 153.08 218.25"/>
        <polygon class="cls-1" points="153.64 217.89 154.2 217.53 202.19 276.59 201.63 276.95 153.64 217.89"/>
        <polygon class="cls-1" points="154.2 217.53 154.76 217.18 202.75 276.23 202.19 276.59 154.2 217.53"/>
        <polygon class="cls-1" points="154.76 217.18 155.32 216.82 203.31 275.87 202.75 276.23 154.76 217.18"/>
        <polygon class="cls-1" points="155.32 216.82 155.88 216.46 203.86 275.52 203.31 275.87 155.32 216.82"/>
        <polygon class="cls-1" points="155.88 216.46 156.43 216.1 204.42 275.16 203.86 275.52 155.88 216.46"/>
        <polygon class="cls-1" points="156.43 216.1 156.99 215.75 204.98 274.8 204.42 275.16 156.43 216.1"/>
        <polygon class="cls-1" points="156.99 215.75 157.55 215.39 205.54 274.44 204.98 274.8 156.99 215.75"/>
        <polygon class="cls-1" points="157.55 215.39 158.11 215.03 206.1 274.08 205.54 274.44 157.55 215.39"/>
        <polygon class="cls-1" points="158.11 215.03 158.67 214.67 206.66 273.73 206.1 274.08 158.11 215.03"/>
        <polygon class="cls-1" points="158.67 214.67 159.23 214.31 207.22 273.37 206.66 273.73 158.67 214.67"/>
        <polygon class="cls-1" points="159.23 214.31 159.65 214.05 207.64 273.1 207.22 273.37 159.23 214.31"/>
        <polygon class="cls-1" points="159.65 214.05 160.06 213.78 208.05 272.83 207.64 273.1 159.65 214.05"/>
        <polygon class="cls-1" points="160.06 213.78 160.48 213.51 208.47 272.57 208.05 272.83 160.06 213.78"/>
        <polygon class="cls-1" points="160.48 213.51 160.9 213.24 208.89 272.3 208.47 272.57 160.48 213.51"/>
        <polygon class="cls-1" points="160.9 213.24 161.32 212.98 209.31 272.03 208.89 272.3 160.9 213.24"/>
        <polygon class="cls-1" points="161.32 212.98 161.74 212.71 209.73 271.76 209.31 272.03 161.32 212.98"/>
        <polygon class="cls-1" points="161.74 212.71 162.16 212.44 210.15 271.49 209.73 271.76 161.74 212.71"/>
        <polygon class="cls-1" points="162.16 212.44 162.58 212.17 210.56 271.23 210.15 271.49 162.16 212.44"/>
        <polygon class="cls-1" points="162.58 212.17 162.73 212.07 163.13 212.07 210.98 270.96 210.56 271.23 162.58 212.17"/>
        <polygon class="cls-1" points="163.76 212.07 211.4 270.69 210.98 270.96 163.13 212.07 163.76 212.07"/>
        <polygon class="cls-1" points="164.4 212.07 211.82 270.42 211.4 270.69 163.76 212.07 164.4 212.07"/>
        <polygon class="cls-1" points="165.04 212.07 212.24 270.16 211.82 270.42 164.4 212.07 165.04 212.07"/>
        <polygon class="cls-1" points="165.67 212.07 212.66 269.89 212.24 270.16 165.04 212.07 165.67 212.07"/>
        <polygon class="cls-1" points="166.31 212.07 213.07 269.62 212.66 269.89 165.67 212.07 166.31 212.07"/>
        <polygon class="cls-1" points="166.94 212.07 213.49 269.35 213.07 269.62 166.31 212.07 166.94 212.07"/>
        <polygon class="cls-1" points="167.58 212.07 213.91 269.08 213.49 269.35 166.94 212.07 167.58 212.07"/>
        <polygon class="cls-1" points="168.22 212.07 214.33 268.82 213.91 269.08 167.58 212.07 168.22 212.07"/>
        <polygon class="cls-1" points="168.85 212.07 214.75 268.55 214.33 268.82 168.22 212.07 168.85 212.07"/>
        <polygon class="cls-1" points="169.49 212.07 215.17 268.28 214.75 268.55 168.85 212.07 169.49 212.07"/>
        <polygon class="cls-1" points="170.12 212.07 215.59 268.01 215.17 268.28 169.49 212.07 170.12 212.07"/>
        <polygon class="cls-1" points="170.76 212.07 216 267.75 215.59 268.01 170.12 212.07 170.76 212.07"/>
        <polygon class="cls-1" points="171.4 212.07 216.42 267.48 216 267.75 170.76 212.07 171.4 212.07"/>
        <polygon class="cls-1" points="172.03 212.07 216.84 267.21 216.42 267.48 171.4 212.07 172.03 212.07"/>
        <polygon class="cls-1" points="172.67 212.07 217.26 266.94 216.84 267.21 172.03 212.07 172.67 212.07"/>
        <polygon class="cls-1" points="173.3 212.07 217.68 266.67 217.26 266.94 172.67 212.07 173.3 212.07"/>
        <polygon class="cls-1" points="173.94 212.07 218.1 266.41 217.68 266.67 173.3 212.07 173.94 212.07"/>
        <polygon class="cls-1" points="174.58 212.07 218.51 266.14 218.1 266.41 173.94 212.07 174.58 212.07"/>
        <polygon class="cls-1" points="175.21 212.07 218.93 265.87 218.51 266.14 174.58 212.07 175.21 212.07"/>
        <polygon class="cls-1" points="175.85 212.07 219.35 265.6 218.93 265.87 175.21 212.07 175.85 212.07"/>
        <polygon class="cls-1" points="176.48 212.07 219.77 265.34 219.35 265.6 175.85 212.07 176.48 212.07"/>
        <polygon class="cls-1" points="177.12 212.07 220.19 265.07 219.77 265.34 176.48 212.07 177.12 212.07"/>
        <polygon class="cls-1" points="177.76 212.07 220.61 264.8 220.19 265.07 177.12 212.07 177.76 212.07"/>
        <polygon class="cls-1" points="178.39 212.07 221.02 264.53 220.61 264.8 177.76 212.07 178.39 212.07"/>
        <polygon class="cls-1" points="179.03 212.07 221.44 264.26 221.02 264.53 178.39 212.07 179.03 212.07"/>
        <polygon class="cls-1" points="179.66 212.07 221.86 264 221.44 264.26 179.03 212.07 179.66 212.07"/>
        <polygon class="cls-1" points="180.3 212.07 222.28 263.73 221.86 264 179.66 212.07 180.3 212.07"/>
        <polygon class="cls-1" points="180.94 212.07 222.7 263.46 222.28 263.73 180.3 212.07 180.94 212.07"/>
        <polygon class="cls-1" points="181.57 212.07 223.12 263.19 222.7 263.46 180.94 212.07 181.57 212.07"/>
        <polygon class="cls-1" points="182.21 212.07 223.53 262.93 223.12 263.19 181.57 212.07 182.21 212.07"/>
        <polygon class="cls-1" points="182.84 212.07 223.95 262.66 223.53 262.93 182.21 212.07 182.84 212.07"/>
        <polygon class="cls-1" points="183.48 212.07 224.37 262.39 223.95 262.66 182.84 212.07 183.48 212.07"/>
        <polygon class="cls-1" points="184.12 212.07 224.79 262.12 224.37 262.39 183.48 212.07 184.12 212.07"/>
        <polygon class="cls-1" points="184.75 212.07 225.21 261.85 224.79 262.12 184.12 212.07 184.75 212.07"/>
        <polygon class="cls-1" points="185.39 212.07 225.63 261.59 225.21 261.85 184.75 212.07 185.39 212.07"/>
        <polygon class="cls-1" points="186.02 212.07 226.04 261.32 225.63 261.59 185.39 212.07 186.02 212.07"/>
        <polygon class="cls-1" points="186.66 212.07 226.46 261.05 226.04 261.32 186.02 212.07 186.66 212.07"/>
        <polygon class="cls-1" points="187.3 212.07 226.88 260.78 226.46 261.05 186.66 212.07 187.3 212.07"/>
        <polygon class="cls-1" points="187.93 212.07 227.3 260.52 226.88 260.78 187.3 212.07 187.93 212.07"/>
        <polygon class="cls-1" points="188.57 212.07 227.72 260.25 227.3 260.52 187.93 212.07 188.57 212.07"/>
        <polygon class="cls-1" points="189.2 212.07 228.14 259.98 227.72 260.25 188.57 212.07 189.2 212.07"/>
        <polygon class="cls-1" points="189.84 212.07 228.56 259.71 228.14 259.98 189.2 212.07 189.84 212.07"/>
        <polygon class="cls-1" points="190.48 212.07 228.97 259.44 228.56 259.71 189.84 212.07 190.48 212.07"/>
        <polygon class="cls-1" points="191.11 212.07 229.39 259.18 228.97 259.44 190.48 212.07 191.11 212.07"/>
        <polygon class="cls-1" points="191.75 212.07 229.81 258.91 229.39 259.18 191.11 212.07 191.75 212.07"/>
        <polygon class="cls-1" points="192.38 212.07 230.23 258.64 229.81 258.91 191.75 212.07 192.38 212.07"/>
        <polygon class="cls-1" points="193.02 212.07 230.65 258.37 230.23 258.64 192.38 212.07 193.02 212.07"/>
        <polygon class="cls-1" points="193.66 212.07 231.07 258.11 230.65 258.37 193.02 212.07 193.66 212.07"/>
        <polygon class="cls-1" points="194.29 212.07 231.48 257.84 231.07 258.11 193.66 212.07 194.29 212.07"/>
        <polygon class="cls-1" points="194.93 212.07 231.9 257.57 231.48 257.84 194.29 212.07 194.93 212.07"/>
        <polygon class="cls-1" points="195.56 212.07 232.32 257.3 231.9 257.57 194.93 212.07 195.56 212.07"/>
        <polygon class="cls-1" points="196.2 212.07 232.74 257.03 232.32 257.3 195.56 212.07 196.2 212.07"/>
        <polygon class="cls-1" points="196.84 212.07 233.16 256.77 232.74 257.03 196.2 212.07 196.84 212.07"/>
        <polygon class="cls-1" points="197.47 212.07 233.58 256.5 233.16 256.77 196.84 212.07 197.47 212.07"/>
        <polygon class="cls-1" points="198.11 212.07 233.99 256.23 233.58 256.5 197.47 212.07 198.11 212.07"/>
        <polygon class="cls-1" points="198.74 212.07 234.35 255.88 234.35 256.01 233.99 256.23 198.11 212.07 198.74 212.07"/>
        <polygon class="cls-1" points="199.38 212.07 234.35 255.1 234.35 255.88 198.74 212.07 199.38 212.07"/>
        <polygon class="cls-1" points="200.02 212.07 234.35 254.32 234.35 255.1 199.38 212.07 200.02 212.07"/>
        <polygon class="cls-1" points="200.65 212.07 234.35 253.53 234.35 254.32 200.02 212.07 200.65 212.07"/>
        <polygon class="cls-1" points="201.29 212.07 234.35 252.75 234.35 253.53 200.65 212.07 201.29 212.07"/>
        <polygon class="cls-1" points="201.92 212.07 234.35 251.97 234.35 252.75 201.29 212.07 201.92 212.07"/>
        <polygon class="cls-1" points="202.56 212.07 234.35 251.19 234.35 251.97 201.92 212.07 202.56 212.07"/>
        <polygon class="cls-1" points="203.2 212.07 234.35 250.4 234.35 251.19 202.56 212.07 203.2 212.07"/>
        <polygon class="cls-1" points="203.83 212.07 234.35 249.62 234.35 250.4 203.2 212.07 203.83 212.07"/>
        <polygon class="cls-1" points="204.47 212.07 234.35 248.84 234.35 249.62 203.83 212.07 204.47 212.07"/>
        <polygon class="cls-1" points="205.1 212.07 234.35 248.06 234.35 248.84 204.47 212.07 205.1 212.07"/>
        <polygon class="cls-1" points="205.74 212.07 234.35 247.27 234.35 248.06 205.1 212.07 205.74 212.07"/>
        <polygon class="cls-1" points="206.38 212.07 234.35 246.49 234.35 247.27 205.74 212.07 206.38 212.07"/>
        <polygon class="cls-1" points="207.01 212.07 234.35 245.71 234.35 246.49 206.38 212.07 207.01 212.07"/>
        <polygon class="cls-1" points="207.65 212.07 234.35 244.93 234.35 245.71 207.01 212.07 207.65 212.07"/>
        <polygon class="cls-1" points="208.28 212.07 234.35 244.14 234.35 244.93 207.65 212.07 208.28 212.07"/>
        <polygon class="cls-1" points="208.92 212.07 234.35 243.36 234.35 244.14 208.28 212.07 208.92 212.07"/>
        <polygon class="cls-1" points="209.56 212.07 234.35 242.58 234.35 243.36 208.92 212.07 209.56 212.07"/>
        <polygon class="cls-1" points="234.35 242.58 209.56 212.07 234.35 212.07 234.35 242.58"/>
      </g>
    </g>
    <g>
      <path class="cls-4" d="m212.43,288.08v-52.48c0-7.25,2.11-12.99,6.32-17.2,4.21-4.21,10.09-6.32,17.64-6.32h39.49v21.32h-29.64c-1.67,0-3.01.51-4.04,1.54-1.03,1.03-1.54,2.38-1.54,4.04v49.1h-28.23Z"/>
      <g class="cls-3">
        <polygon class="cls-4" points="212.43 270.91 224.81 288.08 212.43 288.08 212.43 270.91"/>
        <polygon class="cls-4" points="212.43 269.87 225.56 288.08 224.81 288.08 212.43 270.91 212.43 269.87"/>
        <polygon class="cls-4" points="212.43 268.82 226.31 288.08 225.56 288.08 212.43 269.87 212.43 268.82"/>
        <polygon class="cls-4" points="212.43 267.77 227.07 288.08 226.31 288.08 212.43 268.82 212.43 267.77"/>
        <polygon class="cls-4" points="212.43 266.73 227.82 288.08 227.07 288.08 212.43 267.77 212.43 266.73"/>
        <polygon class="cls-4" points="212.43 265.68 228.58 288.08 227.82 288.08 212.43 266.73 212.43 265.68"/>
        <polygon class="cls-4" points="212.43 264.64 229.33 288.08 228.58 288.08 212.43 265.68 212.43 264.64"/>
        <polygon class="cls-4" points="212.43 263.59 230.08 288.08 229.33 288.08 212.43 264.64 212.43 263.59"/>
        <polygon class="cls-4" points="212.43 262.55 230.84 288.08 230.08 288.08 212.43 263.59 212.43 262.55"/>
        <polygon class="cls-4" points="212.43 261.5 231.59 288.08 230.84 288.08 212.43 262.55 212.43 261.5"/>
        <polygon class="cls-4" points="212.43 260.46 232.35 288.08 231.59 288.08 212.43 261.5 212.43 260.46"/>
        <polygon class="cls-4" points="212.43 259.41 233.1 288.08 232.35 288.08 212.43 260.46 212.43 259.41"/>
        <polygon class="cls-4" points="212.43 258.37 233.85 288.08 233.1 288.08 212.43 259.41 212.43 258.37"/>
        <polygon class="cls-4" points="212.43 257.32 234.61 288.08 233.85 288.08 212.43 258.37 212.43 257.32"/>
        <polygon class="cls-4" points="212.43 256.27 235.36 288.08 234.61 288.08 212.43 257.32 212.43 256.27"/>
        <polygon class="cls-4" points="212.43 255.23 236.12 288.08 235.36 288.08 212.43 256.27 212.43 255.23"/>
        <polygon class="cls-4" points="212.43 254.18 236.87 288.08 236.12 288.08 212.43 255.23 212.43 254.18"/>
        <polygon class="cls-4" points="212.43 253.14 237.62 288.08 236.87 288.08 212.43 254.18 212.43 253.14"/>
        <polygon class="cls-4" points="212.43 252.09 238.38 288.08 237.62 288.08 212.43 253.14 212.43 252.09"/>
        <polygon class="cls-4" points="212.43 251.05 239.13 288.08 238.38 288.08 212.43 252.09 212.43 251.05"/>
        <polygon class="cls-4" points="212.43 250 239.89 288.08 239.13 288.08 212.43 251.05 212.43 250"/>
        <polygon class="cls-4" points="212.43 248.96 240.64 288.08 239.89 288.08 212.43 250 212.43 248.96"/>
        <polygon class="cls-4" points="212.43 247.91 241.39 288.08 240.64 288.08 212.43 248.96 212.43 247.91"/>
        <polygon class="cls-4" points="212.43 246.87 242.15 288.08 241.39 288.08 212.43 247.91 212.43 246.87"/>
        <polygon class="cls-4" points="212.43 245.82 242.87 288.03 242.81 288.08 242.15 288.08 212.43 246.87 212.43 245.82"/>
        <polygon class="cls-4" points="212.43 244.78 243.37 287.68 242.87 288.03 212.43 245.82 212.43 244.78"/>
        <polygon class="cls-4" points="212.43 243.73 243.86 287.32 243.37 287.68 212.43 244.78 212.43 243.73"/>
        <polygon class="cls-4" points="212.43 242.68 244.36 286.96 243.86 287.32 212.43 243.73 212.43 242.68"/>
        <polygon class="cls-4" points="212.43 241.64 244.85 286.6 244.36 286.96 212.43 242.68 212.43 241.64"/>
        <polygon class="cls-4" points="212.43 240.59 245.35 286.25 244.85 286.6 212.43 241.64 212.43 240.59"/>
        <polygon class="cls-4" points="212.43 239.55 245.85 285.89 245.35 286.25 212.43 240.59 212.43 239.55"/>
        <polygon class="cls-4" points="212.43 238.5 246.34 285.53 245.85 285.89 212.43 239.55 212.43 238.5"/>
        <polygon class="cls-4" points="212.43 237.46 246.84 285.17 246.34 285.53 212.43 238.5 212.43 237.46"/>
        <polygon class="cls-4" points="212.43 236.41 247.33 284.82 246.84 285.17 212.43 237.46 212.43 236.41"/>
        <polygon class="cls-4" points="212.43 235.37 247.83 284.46 247.33 284.82 212.43 236.41 212.43 235.37"/>
        <polygon class="cls-4" points="212.43 234.32 248.33 284.1 247.83 284.46 212.43 235.37 212.43 234.32"/>
        <polygon class="cls-4" points="212.43 233.28 248.82 283.74 248.33 284.1 212.43 234.32 212.43 233.28"/>
        <polygon class="cls-4" points="212.43 232.23 249.32 283.38 248.82 283.74 212.43 233.28 212.43 232.23"/>
        <polygon class="cls-4" points="212.43 231.18 249.81 283.03 249.32 283.38 212.43 232.23 212.43 231.18"/>
        <polygon class="cls-4" points="212.43 230.14 250.31 282.67 249.81 283.03 212.43 231.18 212.43 230.14"/>
        <polygon class="cls-4" points="212.43 229.09 250.81 282.31 250.31 282.67 212.43 230.14 212.43 229.09"/>
        <polygon class="cls-4" points="212.43 228.05 251.3 281.95 250.81 282.31 212.43 229.09 212.43 228.05"/>
        <polygon class="cls-4" points="212.43 227 251.8 281.6 251.3 281.95 212.43 228.05 212.43 227"/>
        <polygon class="cls-4" points="212.43 225.96 252.29 281.24 251.8 281.6 212.43 227 212.43 225.96"/>
        <polygon class="cls-4" points="212.43 224.91 252.79 280.88 252.29 281.24 212.43 225.96 212.43 224.91"/>
        <polygon class="cls-4" points="212.43 223.87 253.29 280.52 252.79 280.88 212.43 224.91 212.43 223.87"/>
        <polygon class="cls-4" points="212.43 222.82 253.78 280.17 253.29 280.52 212.43 223.87 212.43 222.82"/>
        <polygon class="cls-4" points="212.43 221.78 254.28 279.81 253.78 280.17 212.43 222.82 212.43 221.78"/>
        <polygon class="cls-4" points="212.43 220.73 254.77 279.45 254.28 279.81 212.43 221.78 212.43 220.73"/>
        <polygon class="cls-4" points="212.43 220.22 212.68 220.04 255.27 279.09 254.77 279.45 212.43 220.73 212.43 220.22"/>
        <rect class="cls-4" x="233.92" y="212.98" width=".61" height="72.81" transform="translate(-101.63 184.12) rotate(-35.8)"/>
        <rect class="cls-4" x="234.41" y="212.62" width=".61" height="72.81" transform="translate(-101.32 184.34) rotate(-35.8)"/>
        <rect class="cls-4" x="234.91" y="212.27" width=".61" height="72.81" transform="translate(-101.02 184.57) rotate(-35.8)"/>
        <rect class="cls-4" x="235.4" y="211.91" width=".61" height="72.81" transform="translate(-100.72 184.79) rotate(-35.8)"/>
        <rect class="cls-4" x="235.9" y="211.55" width=".61" height="72.81" transform="translate(-100.41 185.01) rotate(-35.8)"/>
        <rect class="cls-4" x="236.4" y="211.19" width=".61" height="72.81" transform="translate(-100.11 185.23) rotate(-35.8)"/>
        <rect class="cls-4" x="236.89" y="210.84" width=".61" height="72.81" transform="translate(-99.81 185.46) rotate(-35.8)"/>
        <rect class="cls-4" x="237.39" y="210.48" width=".61" height="72.81" transform="translate(-99.51 185.68) rotate(-35.8)"/>
        <rect class="cls-4" x="237.88" y="210.12" width=".61" height="72.81" transform="translate(-99.2 185.9) rotate(-35.8)"/>
        <rect class="cls-4" x="238.38" y="209.76" width=".61" height="72.81" transform="translate(-98.9 186.12) rotate(-35.8)"/>
        <rect class="cls-4" x="238.88" y="209.4" width=".61" height="72.81" transform="translate(-98.6 186.35) rotate(-35.8)"/>
        <rect class="cls-4" x="239.37" y="209.05" width=".61" height="72.81" transform="translate(-98.29 186.57) rotate(-35.8)"/>
        <rect class="cls-4" x="239.87" y="208.69" width=".61" height="72.81" transform="translate(-97.99 186.79) rotate(-35.8)"/>
        <rect class="cls-4" x="240.36" y="208.33" width=".61" height="72.81" transform="translate(-97.69 187.01) rotate(-35.8)"/>
        <rect class="cls-4" x="240.86" y="207.97" width=".61" height="72.81" transform="translate(-97.38 187.24) rotate(-35.8)"/>
        <rect class="cls-4" x="241.36" y="207.62" width=".61" height="72.81" transform="translate(-97.08 187.46) rotate(-35.8)"/>
        <rect class="cls-4" x="241.87" y="207.3" width=".46" height="72.81" transform="translate(-96.82 187.65) rotate(-35.8)"/>
        <rect class="cls-4" x="242.24" y="207.04" width=".46" height="72.81" transform="translate(-96.59 187.82) rotate(-35.8)"/>
        <rect class="cls-4" x="242.61" y="206.77" width=".46" height="72.81" transform="translate(-96.36 187.99) rotate(-35.8)"/>
        <rect class="cls-4" x="242.98" y="206.5" width=".46" height="72.81" transform="translate(-96.14 188.15) rotate(-35.8)"/>
        <rect class="cls-4" x="243.35" y="206.23" width=".46" height="72.81" transform="translate(-95.91 188.32) rotate(-35.8)"/>
        <rect class="cls-4" x="243.72" y="205.96" width=".46" height="72.81" transform="translate(-95.68 188.49) rotate(-35.8)"/>
        <rect class="cls-4" x="244.09" y="205.7" width=".46" height="72.81" transform="translate(-95.46 188.65) rotate(-35.8)"/>
        <rect class="cls-4" x="244.47" y="205.43" width=".46" height="72.81" transform="translate(-95.23 188.82) rotate(-35.8)"/>
        <polygon class="cls-4" points="223.59 212.17 223.73 212.07 224.08 212.07 266.55 270.96 266.18 271.23 223.59 212.17"/>
        <polygon class="cls-4" points="224.64 212.07 266.92 270.69 266.55 270.96 224.08 212.07 224.64 212.07"/>
        <polygon class="cls-4" points="225.21 212.07 267.29 270.42 266.92 270.69 224.64 212.07 225.21 212.07"/>
        <polygon class="cls-4" points="225.77 212.07 267.66 270.16 267.29 270.42 225.21 212.07 225.77 212.07"/>
        <polygon class="cls-4" points="226.34 212.07 268.03 269.89 267.66 270.16 225.77 212.07 226.34 212.07"/>
        <polygon class="cls-4" points="226.9 212.07 268.4 269.62 268.03 269.89 226.34 212.07 226.9 212.07"/>
        <polygon class="cls-4" points="227.46 212.07 268.77 269.35 268.4 269.62 226.9 212.07 227.46 212.07"/>
        <polygon class="cls-4" points="228.03 212.07 269.15 269.08 268.77 269.35 227.46 212.07 228.03 212.07"/>
        <polygon class="cls-4" points="228.59 212.07 269.52 268.82 269.15 269.08 228.03 212.07 228.59 212.07"/>
        <polygon class="cls-4" points="229.16 212.07 269.89 268.55 269.52 268.82 228.59 212.07 229.16 212.07"/>
        <polygon class="cls-4" points="229.72 212.07 270.26 268.28 269.89 268.55 229.16 212.07 229.72 212.07"/>
        <polygon class="cls-4" points="230.29 212.07 270.63 268.01 270.26 268.28 229.72 212.07 230.29 212.07"/>
        <polygon class="cls-4" points="230.85 212.07 271 267.75 270.63 268.01 230.29 212.07 230.85 212.07"/>
        <polygon class="cls-4" points="231.42 212.07 271.37 267.48 271 267.75 230.85 212.07 231.42 212.07"/>
        <polygon class="cls-4" points="231.98 212.07 271.75 267.21 271.37 267.48 231.42 212.07 231.98 212.07"/>
        <polygon class="cls-4" points="232.54 212.07 272.12 266.94 271.75 267.21 231.98 212.07 232.54 212.07"/>
        <polygon class="cls-4" points="233.11 212.07 272.49 266.67 272.12 266.94 232.54 212.07 233.11 212.07"/>
        <polygon class="cls-4" points="233.67 212.07 272.86 266.41 272.49 266.67 233.11 212.07 233.67 212.07"/>
        <polygon class="cls-4" points="234.24 212.07 273.23 266.14 272.86 266.41 233.67 212.07 234.24 212.07"/>
        <polygon class="cls-4" points="234.8 212.07 273.6 265.87 273.23 266.14 234.24 212.07 234.8 212.07"/>
        <polygon class="cls-4" points="235.37 212.07 273.97 265.6 273.6 265.87 234.8 212.07 235.37 212.07"/>
        <polygon class="cls-4" points="235.93 212.07 274.34 265.34 273.97 265.6 235.37 212.07 235.93 212.07"/>
        <polygon class="cls-4" points="236.49 212.07 274.72 265.07 274.34 265.34 235.93 212.07 236.49 212.07"/>
        <polygon class="cls-4" points="237.06 212.07 275.09 264.8 274.72 265.07 236.49 212.07 237.06 212.07"/>
        <polygon class="cls-4" points="237.62 212.07 275.46 264.53 275.09 264.8 237.06 212.07 237.62 212.07"/>
        <polygon class="cls-4" points="238.19 212.07 275.83 264.26 275.46 264.53 237.62 212.07 238.19 212.07"/>
        <polygon class="cls-4" points="238.75 212.07 276.2 264 275.83 264.26 238.19 212.07 238.75 212.07"/>
        <polygon class="cls-4" points="239.32 212.07 276.57 263.73 276.2 264 238.75 212.07 239.32 212.07"/>
        <polygon class="cls-4" points="239.88 212.07 276.94 263.46 276.57 263.73 239.32 212.07 239.88 212.07"/>
        <polygon class="cls-4" points="240.45 212.07 277.31 263.19 276.94 263.46 239.88 212.07 240.45 212.07"/>
        <polygon class="cls-4" points="241.01 212.07 277.69 262.93 277.31 263.19 240.45 212.07 241.01 212.07"/>
        <polygon class="cls-4" points="241.57 212.07 278.06 262.66 277.69 262.93 241.01 212.07 241.57 212.07"/>
        <polygon class="cls-4" points="242.14 212.07 278.43 262.39 278.06 262.66 241.57 212.07 242.14 212.07"/>
        <polygon class="cls-4" points="242.7 212.07 278.8 262.12 278.43 262.39 242.14 212.07 242.7 212.07"/>
        <polygon class="cls-4" points="243.27 212.07 279.17 261.85 278.8 262.12 242.7 212.07 243.27 212.07"/>
        <polygon class="cls-4" points="243.83 212.07 279.54 261.59 279.17 261.85 243.27 212.07 243.83 212.07"/>
        <polygon class="cls-4" points="244.4 212.07 279.91 261.32 279.54 261.59 243.83 212.07 244.4 212.07"/>
        <polygon class="cls-4" points="244.96 212.07 280.29 261.05 279.91 261.32 244.4 212.07 244.96 212.07"/>
        <polygon class="cls-4" points="245.53 212.07 280.66 260.78 280.29 261.05 244.96 212.07 245.53 212.07"/>
        <polygon class="cls-4" points="246.09 212.07 281.03 260.52 280.66 260.78 245.53 212.07 246.09 212.07"/>
        <polygon class="cls-4" points="246.65 212.07 281.4 260.25 281.03 260.52 246.09 212.07 246.65 212.07"/>
        <polygon class="cls-4" points="247.22 212.07 281.77 259.98 281.4 260.25 246.65 212.07 247.22 212.07"/>
        <polygon class="cls-4" points="247.78 212.07 282.14 259.71 281.77 259.98 247.22 212.07 247.78 212.07"/>
        <polygon class="cls-4" points="248.35 212.07 282.51 259.44 282.14 259.71 247.78 212.07 248.35 212.07"/>
        <polygon class="cls-4" points="248.91 212.07 282.88 259.18 282.51 259.44 248.35 212.07 248.91 212.07"/>
        <polygon class="cls-4" points="249.48 212.07 283.26 258.91 282.88 259.18 248.91 212.07 249.48 212.07"/>
        <polygon class="cls-4" points="250.04 212.07 283.63 258.64 283.26 258.91 249.48 212.07 250.04 212.07"/>
        <polygon class="cls-4" points="250.61 212.07 284 258.37 283.63 258.64 250.04 212.07 250.61 212.07"/>
        <polygon class="cls-4" points="251.17 212.07 284.37 258.11 284 258.37 250.61 212.07 251.17 212.07"/>
        <polygon class="cls-4" points="251.73 212.07 284.74 257.84 284.37 258.11 251.17 212.07 251.73 212.07"/>
        <polygon class="cls-4" points="252.3 212.07 285.11 257.57 284.74 257.84 251.73 212.07 252.3 212.07"/>
        <polygon class="cls-4" points="252.86 212.07 285.48 257.3 285.11 257.57 252.3 212.07 252.86 212.07"/>
        <polygon class="cls-4" points="253.43 212.07 285.86 257.03 285.48 257.3 252.86 212.07 253.43 212.07"/>
        <polygon class="cls-4" points="253.99 212.07 286.23 256.77 285.86 257.03 253.43 212.07 253.99 212.07"/>
        <polygon class="cls-4" points="254.56 212.07 286.6 256.5 286.23 256.77 253.99 212.07 254.56 212.07"/>
        <polygon class="cls-4" points="255.12 212.07 286.97 256.23 286.6 256.5 254.56 212.07 255.12 212.07"/>
        <polygon class="cls-4" points="255.69 212.07 287.28 255.88 287.28 256.01 286.97 256.23 255.12 212.07 255.69 212.07"/>
        <polygon class="cls-4" points="256.25 212.07 287.28 255.1 287.28 255.88 255.69 212.07 256.25 212.07"/>
        <polygon class="cls-4" points="256.81 212.07 287.28 254.32 287.28 255.1 256.25 212.07 256.81 212.07"/>
        <polygon class="cls-4" points="257.38 212.07 287.28 253.53 287.28 254.32 256.81 212.07 257.38 212.07"/>
        <polygon class="cls-4" points="257.94 212.07 287.28 252.75 287.28 253.53 257.38 212.07 257.94 212.07"/>
        <polygon class="cls-4" points="258.51 212.07 287.28 251.97 287.28 252.75 257.94 212.07 258.51 212.07"/>
        <polygon class="cls-4" points="259.07 212.07 287.28 251.19 287.28 251.97 258.51 212.07 259.07 212.07"/>
        <polygon class="cls-4" points="259.64 212.07 287.28 250.4 287.28 251.19 259.07 212.07 259.64 212.07"/>
        <polygon class="cls-4" points="260.2 212.07 287.28 249.62 287.28 250.4 259.64 212.07 260.2 212.07"/>
        <polygon class="cls-4" points="260.77 212.07 287.28 248.84 287.28 249.62 260.2 212.07 260.77 212.07"/>
        <polygon class="cls-4" points="261.33 212.07 287.28 248.06 287.28 248.84 260.77 212.07 261.33 212.07"/>
        <polygon class="cls-4" points="261.89 212.07 287.28 247.27 287.28 248.06 261.33 212.07 261.89 212.07"/>
        <polygon class="cls-4" points="262.46 212.07 287.28 246.49 287.28 247.27 261.89 212.07 262.46 212.07"/>
        <polygon class="cls-4" points="263.02 212.07 287.28 245.71 287.28 246.49 262.46 212.07 263.02 212.07"/>
        <polygon class="cls-4" points="263.59 212.07 287.28 244.93 287.28 245.71 263.02 212.07 263.59 212.07"/>
        <polygon class="cls-4" points="264.15 212.07 287.28 244.14 287.28 244.93 263.59 212.07 264.15 212.07"/>
        <polygon class="cls-4" points="264.72 212.07 287.28 243.36 287.28 244.14 264.15 212.07 264.72 212.07"/>
        <polygon class="cls-4" points="265.28 212.07 287.28 242.58 287.28 243.36 264.72 212.07 265.28 212.07"/>
        <polygon class="cls-4" points="287.28 242.58 265.28 212.07 287.28 212.07 287.28 242.58"/>
      </g>
    </g>
    <polygon class="cls-1" points="346.69 212 319.53 250.02 303.02 226.86 313.61 212 346.69 212"/>
    <polygon class="cls-2" points="319.52 250.02 309.9 263.48 303.01 273.13 292.28 288.15 259.35 288.15 286.52 250.03 286.52 250.02 259.35 212 292.43 212 303.01 226.86 319.52 250.02"/>
  </g>
  <polygon class="cls-1" points="346.69 288.15 313.76 288.15 303.02 273.13 309.91 263.48 319.53 250.02 346.69 288.15"/>
</svg>